<svg version="1.1" width="180" height="50" xmlns="http://www.w3.org/2000/svg">
  <!-- C -->
  <path d="M 10 0 A 10 10 0 0 0 0 10 L 10 10" />
  <rect x="0" y="10" width="10" height="10" />
  <rect x="0" y="20" width="10" height="10" />
  <rect x="0" y="30" width="10" height="10" />
  <path d="M 0 40 A 10 10 0 0 0 10 50 L 10 40" />
  <path d="M 10 0 A 10 10 0 0 0 20 10 L 20 0" />
  <rect x="20" y="0" width="10" height="10" />
  <rect x="20" y="40" width="10" height="10" />
  <path d="M 20 40 A 10 10 0 0 0 10 50 L 20 50" />
  <rect x="30" y="0" width="10" height="10" />
  <rect x="30" y="40" width="10" height="10" />
  <!-- C -->
  <path d="M 50 10 A 10 10 0 0 0 60 0 L 50 0" />
  <rect x="50" y="10" width="10" height="10" />
  <rect x="50" y="20" width="10" height="10" />
  <rect x="50" y="30" width="10" height="10" />
  <path d="M 60 50 A 10 10 0 0 0 50 40 L 50 50" />
  <path d="M 60 0 A 10 10 0 0 0 70 10 L 70 0" />
  <path d="M 70 40 A 10 10 0 0 0 60 50 L 70 50" />
  <rect x="70" y="0" width="10" height="10" />
  <rect x="70" y="40" width="10" height="10" />
  <rect x="80" y="0" width="10" height="10" />
  <rect x="80" y="40" width="10" height="10" />
  <!-- B -->
  <rect x="100" y="0" width="10" height="10" />
  <rect x="100" y="10" width="10" height="10" />
  <path d="M 100 20 L 100 30 L 110 30 L 100 20" />
  <rect x="100" y="30" width="10" height="10" />
  <rect x="100" y="40" width="10" height="10" />
  <path d="M 110 0 A 10 10 0 0 0 120 10 L 120 0" />
  <path d="M 120 40 A 10 10 0 0 0 110 50 L 120 50" />
  <rect x="110" y="20" width="10" height="10" />
  <rect x="120" y="0" width="10" height="10" />
  <rect x="120" y="20" width="10" height="10" />
  <rect x="120" y="40" width="10" height="10" />
  <path d="M 140 10 A 10 10 0 0 0 130 0 L 130 10" />
  <rect x="130" y="10" width="10" height="10" />
  <rect x="130" y="30" width="10" height="10" />
  <path d="M 130 50 A 10 10 0 0 0 140 40 L 130 40" />
  <!-- T -->
  <rect x="150" y="0" width="10" height="10" />
  <rect x="160" y="0" width="10" height="10" />
  <path d="M 170 10 A 10 10 0 0 0 160 20 L 170 20" />
  <rect x="160" y="20" width="10" height="10" />
  <rect x="160" y="30" width="10" height="10" />
  <rect x="160" y="40" width="10" height="10" />
  <rect x="170" y="0" width="10" height="10" />
</svg>